HIERARCHY
ROOT Hips
{
  OFFSET -331.093 83.8371 -317.828
  CHANNELS 6 Xposition Yposition Zposition Zrotation Xrotation Yrotation
  JOINT LeftUpLeg
  {
    OFFSET 8.64259 1.95398 -2.38835
    CHANNELS 3 Zrotation Xrotation Yrotation
    JOINT LeftLeg
    {
      OFFSET 43.7702 0 0
      CHANNELS 3 Zrotation Xrotation Yrotation
      JOINT LeftFoot
      {
        OFFSET 40.6238 0 0
        CHANNELS 3 Zrotation Xrotation Yrotation
        JOINT LeftToeBase
        {
          OFFSET 12.7242 0 0
          CHANNELS 3 Zrotation Xrotation Yrotation
          End Site
          {
            OFFSET 0 0 0
          }
        }
      }
    }
  }
  JOINT RightUpLeg
  {
    OFFSET -8.2249 1.95398 -2.59336
    CHANNELS 3 Zrotation Xrotation Yrotation
    JOINT RightLeg
    {
      OFFSET 43.5653 0 0
      CHANNELS 3 Zrotation Xrotation Yrotation
      JOINT RightFoot
      {
        OFFSET 40.6238 0 0
        CHANNELS 3 Zrotation Xrotation Yrotation
        JOINT RightToeBase
        {
          OFFSET 12.7242 0 0
          CHANNELS 3 Zrotation Xrotation Yrotation
          End Site
          {
            OFFSET 0 0 0
          }
        }
      }
    }
  }
  JOINT Spine
  {
    OFFSET 0.165834 0.87714 6.61349
    CHANNELS 3 Zrotation Xrotation Yrotation
    JOINT Spine1
    {
      OFFSET 7.38963 1.71661e-005 0
      CHANNELS 3 Zrotation Xrotation Yrotation
      JOINT Spine2
      {
        OFFSET 11.9445 1.14441e-005 0
        CHANNELS 3 Zrotation Xrotation Yrotation
        JOINT Spine3
        {
          OFFSET 14.7254 4.19617e-005 0
          CHANNELS 3 Zrotation Xrotation Yrotation
          JOINT Spine4
          {
            OFFSET 10.9679 0 0
            CHANNELS 3 Zrotation Xrotation Yrotation
            JOINT RightShoulder
            {
              OFFSET 2.46616 -1.6653 3.69651
              CHANNELS 3 Zrotation Xrotation Yrotation
              JOINT RightArm
              {
                OFFSET 13.0012 0 0
                CHANNELS 3 Zrotation Xrotation Yrotation
                JOINT RightForeArm
                {
                  OFFSET 28.7848 1.62311e-005 0
                  CHANNELS 3 Zrotation Xrotation Yrotation
                  JOINT RightHand
                  {
                    OFFSET 26.5688 1.62095e-005 0
                    CHANNELS 3 Zrotation Xrotation Yrotation
                    End Site
                    {
                      OFFSET 0 0 0
                    }
                  }
                }
              }
            }
            JOINT LeftShoulder
            {
              OFFSET 2.38034 -1.29275 -3.7523
              CHANNELS 3 Zrotation Xrotation Yrotation
              JOINT LeftArm
              {
                OFFSET 16.3182 6.07031e-005 0
                CHANNELS 3 Zrotation Xrotation Yrotation
                JOINT LeftForeArm
                {
                  OFFSET 27.0901 0 0
                  CHANNELS 3 Zrotation Xrotation Yrotation
                  JOINT LeftHand
                  {
                    OFFSET 24.5451 1.51738e-005 0
                    CHANNELS 3 Zrotation Xrotation Yrotation
                    End Site
                    {
                      OFFSET 0 0 0
                    }
                  }
                }
              }
            }
            JOINT Neck
            {
              OFFSET 5.0226 -0.0266342 0
              CHANNELS 3 Zrotation Xrotation Yrotation
              JOINT Head
              {
                OFFSET 6.69364 2.86102e-005 0
                CHANNELS 3 Zrotation Xrotation Yrotation
                End Site
                {
                  OFFSET 0 0 0
                }
              }
            }
          }
        }
      }
    }
  }
}
MOTION
Frames:	6
Frame Time:	0.0416667
-56.3464 98.7986 54.6484 -95.2032 -89.0438 -95.0887 -174.01 4.69029 93.6124 -11.2793 7.9832 -0.379072 61.1094 0.788506 2.8962 33.3276 2.68345 -2.56144 170.786 3.60197 86.8845 -10.3823 -9.45954 -2.83088 63.6826 -2.13269 -1.16037 30.4574 -0.47865 -3.37851 -0.0176514 6.90591 -90.1018 13.062 -0.0736147 -0.194644 1.39102 -0.0821591 -0.191331 -21.144 -0.0113125 -0.207041 -1.13137 -0.0113169 -0.207049 91.9389 -38.8664 -99.9679 34.8792 -15.9206 0.771391 -4.98609 -9.67678 -38.084 -8.08148 -0.531436 2.06937 -97.7618 -50.1762 67.832 -22.4497 12.0923 1.29166 5.24906 16.7473 -32.5888 12.6672 0.999811 3.87581 3.29912 0.39758 5.28686 -4.50031 -0.413974 -3.75864 
-56.3556 98.8311 54.6806 -90.3306 -89.0553 -90.0907 -174.04 4.66953 93.6909 -11.1516 7.0601 -0.225423 61.5094 0.713981 2.05934 33.4961 2.64624 -3.14342 170.634 3.75481 86.9749 -10.3435 -8.83869 -2.54585 63.11 -1.84914 -1.00712 31.5466 -0.471683 -2.96498 -0.0132674 6.89445 -90.1022 13.0849 -0.0768517 -0.194765 1.41392 -0.0853506 -0.191103 -21.1211 -0.014738 -0.209514 -1.10848 -0.0147365 -0.20952 91.8321 -39.1698 -100.077 34.8479 -15.8847 0.816349 -5.36784 -10.327 -37.8607 -8.48292 -0.552 1.96677 -97.6971 -50.0969 67.9101 -22.4733 12.2145 1.17989 4.8889 16.5366 -32.0076 12.0645 0.993075 4.16817 4.05421 0.106463 4.05992 -5.55968 -0.548651 -1.75106 
-56.3643 98.8241 54.6673 -86.4452 -89.0767 -86.2053 -173.751 4.67451 93.8227 -11.0482 7.07139 -0.525875 62.2181 1.37726 1.95225 31.9194 1.55114 -3.05902 170.737 3.83206 87.0269 -10.418 -8.68262 -2.62413 63.2497 -1.88814 -1.02964 31.2737 -0.432479 -2.77336 -0.0291718 6.90039 -90.0929 13.073 -0.102531 -0.173263 1.40204 -0.110066 -0.168585 -21.133 -0.0457304 -0.196076 -1.12038 -0.04572 -0.196067 91.7569 -39.3095 -100.172 34.6512 -15.9224 0.681697 -5.34541 -10.5239 -37.912 -8.39034 -0.587549 2.64437 -97.5667 -50.0719 68.089 -22.6057 12.1941 1.17007 5.04398 16.728 -32.1783 12.5749 1.06974 4.45761 4.19841 0.222232 3.93046 -5.65195 -0.416259 -1.7496 
-56.3531 98.8213 54.6393 -86.0416 -88.9942 -85.8111 -173.744 4.65274 93.8088 -11.0335 7.22983 -0.55422 62.2921 1.56752 2.1162 31.6652 1.39382 -2.971 170.755 4.00186 87.0039 -10.6233 -8.71711 -2.6353 63.1993 -1.81525 -0.99231 31.4923 -0.41789 -2.60626 -0.0254215 6.90637 -90.1003 13.061 -0.0986405 -0.188417 1.39007 -0.106835 -0.183901 -21.145 -0.0374575 -0.209356 -1.13233 -0.037456 -0.209354 91.6299 -39.1554 -100.434 34.7672 -15.8144 0.794184 -5.37594 -10.1101 -38.0631 -8.12075 -0.554345 2.38375 -97.6143 -50.1274 68.0385 -22.5566 12.1906 1.24825 5.03484 16.5717 -32.2895 12.4963 1.05512 4.39249 4.11258 0.195023 3.94995 -5.73856 -0.449313 -1.5319 
-56.4372 98.8165 54.6314 -84.1815 -89.0124 -83.9302 -173.986 4.54491 93.7599 -10.6623 6.8516 -0.257569 61.6249 0.948642 1.92695 32.7314 2.11981 -3.0816 170.758 3.97607 87.0814 -10.5513 -8.65661 -2.58493 63.2644 -1.86468 -1.01901 31.1932 -0.442248 -2.86756 -0.0134091 6.91035 -90.1133 13.053 -0.0810115 -0.216625 1.38206 -0.09047 -0.212866 -21.1529 -0.0121677 -0.230958 -1.14029 -0.0121648 -0.230966 91.7182 -39.3304 -100.234 34.2095 -16.1966 0.641053 -4.63011 -9.47062 -37.7664 -8.22863 -0.54239 2.12631 -97.75 -50.1735 67.8572 -22.2742 12.2521 1.30473 4.83584 16.3014 -32.1747 12.4633 1.02142 4.15526 4.44755 0.221616 3.12704 -6.28374 -0.324554 -0.3729 
-56.8875 98.8076 54.6244 -82.9997 -88.8135 -82.706 -173.792 4.33152 94.1539 -10.0889 6.99639 -0.289286 61.069 0.723458 1.82148 33.9265 2.67875 -4.12957 170.821 4.25966 87.3459 -11.0919 -8.84183 -2.45511 63.5179 -1.8725 -1.033 31.139 -0.454627 -2.97274 0.00111201 6.89906 -90.1525 13.0755 -0.0710552 -0.296307 1.40455 -0.0840267 -0.292899 -21.1303 0.0212759 -0.303967 -1.11769 0.0212775 -0.303968 91.6511 -39.1334 -100.403 34.3487 -16.0103 0.78702 -5.03445 -10.2486 -38.0477 -8.41963 -0.577331 2.46787 -97.7994 -50.2444 67.8093 -22.1642 12.0536 1.54949 4.86102 16.3598 -32.1305 12.5531 1.0101 4.01844 4.49499 0.199832 3.59236 -6.65451 -0.41365 -0.75577 
